<svg width="28" height="28" viewBox="0 0 28 28" fill="none" xmlns="http://www.w3.org/2000/svg">
<path d="M3 12.9384C3 11.7142 3.56058 10.5574 4.52142 9.79888L11.9214 3.95677C13.3747 2.80948 15.4253 2.80948 16.8786 3.95677L24.2786 9.79888C25.2394 10.5574 25.8 11.7142 25.8 12.9384V22C25.8 24.2091 24.0091 26 21.8 26H19C18.4477 26 18 25.5523 18 25V20.8C18 19.6954 17.1046 18.8 16 18.8H12.8C11.6954 18.8 10.8 19.6954 10.8 20.8V25C10.8 25.5523 10.3523 26 9.8 26H7C4.79086 26 3 24.2091 3 22L3 12.9384Z" fill="white"/>
</svg>
