<svg width="25" height="25" viewBox="0 0 25 25" fill="none" xmlns="http://www.w3.org/2000/svg">
<path d="M15.2913 11.8136C15.2913 13.3551 14.0417 14.6049 12.5001 14.6049C10.9585 14.6049 9.70874 13.3551 9.70874 11.8136C9.70874 10.272 10.9585 9.02228 12.5001 9.02228C14.0417 9.02228 15.2913 10.272 15.2913 11.8136Z" fill="white"/>
<path d="M22.6467 2.35308C22.1366 1.84321 21.4584 1.5625 20.7375 1.5625H4.26268C3.5417 1.5625 2.86361 1.84321 2.35308 2.35341C1.84321 2.86378 1.5625 3.5417 1.5625 4.26268V7.00859C1.5625 7.72958 1.84321 8.4075 2.35341 8.9182C2.86378 9.42807 3.5417 9.7086 4.26268 9.7086H4.39954V4.99468C4.39954 4.64087 4.68642 4.3538 5.04041 4.3538H19.9599C20.3137 4.3538 20.6008 4.64087 20.6008 4.99468V9.7086H20.7375C21.4584 9.7086 22.1364 9.42789 22.6471 8.9177C23.157 8.4075 23.4376 7.72941 23.4376 7.00859V4.26268C23.4376 3.5417 23.157 2.86378 22.6467 2.35308Z" fill="white"/>
<path d="M5.68115 21.4238C5.68115 21.9621 5.89077 22.4678 6.27078 22.8472C6.65097 23.228 7.15667 23.4376 7.69489 23.4376H17.3053C17.8436 23.4376 18.3493 23.228 18.7287 22.8479C19.1093 22.4678 19.3189 21.9621 19.3189 21.4238V5.63548H5.68115V21.4238ZM12.5001 7.74051C14.746 7.74051 16.5732 9.56767 16.5732 11.8136C16.5732 14.0595 14.746 15.8866 12.5001 15.8866C10.2542 15.8866 8.42706 14.0595 8.42706 11.8136C8.42706 9.56767 10.2542 7.74051 12.5001 7.74051ZM9.06793 18.7237H15.9323C16.2862 18.7237 16.5732 19.0105 16.5732 19.3645C16.5732 19.7183 16.2862 20.0054 15.9323 20.0054H9.06793C8.71396 20.0054 8.42706 19.7183 8.42706 19.3645C8.42706 19.0105 8.71396 18.7237 9.06793 18.7237Z" fill="white"/>
</svg>
