<svg width="14" height="15" viewBox="0 0 14 15" fill="none" xmlns="http://www.w3.org/2000/svg">
<path d="M6.54064 14.56C7.57196 14.56 8.40852 13.7453 8.40852 12.74H4.67277C4.67277 13.7453 5.50933 14.56 6.54064 14.56ZM12.8299 10.3026C12.2657 9.71226 11.2102 8.82416 11.2102 5.915C11.2102 3.70541 9.61941 1.93659 7.47444 1.50264V0.91C7.47444 0.407509 7.0563 0 6.54064 0C6.02499 0 5.60685 0.407509 5.60685 0.91V1.50264C3.46188 1.93659 1.87111 3.70541 1.87111 5.915C1.87111 8.82416 0.815554 9.71226 0.251425 10.3026C0.0762301 10.486 -0.00143977 10.7053 2.0188e-05 10.92C0.0032321 11.3864 0.379026 11.83 0.937315 11.83H12.144C12.7023 11.83 13.0783 11.3864 13.0813 10.92C13.0827 10.7053 13.0051 10.4858 12.8299 10.3026Z" fill="white"/>
</svg>
