<svg width="28" height="28" viewBox="0 0 28 28" fill="none" xmlns="http://www.w3.org/2000/svg">
<circle r="5.48571" transform="matrix(-1 0 0 1 13.6 7.48571)" fill="#F2F2F2" fill-opacity="0.5"/>
<circle r="5.73571" transform="matrix(-1 0 0 1 13.6 7.48571)" stroke="#F2F2F2" stroke-opacity="0.5" stroke-width="0.5"/>
<path d="M4 21.1104C4 19.9305 4.74174 18.878 5.85293 18.4811C10.8627 16.6919 16.3373 16.6919 21.3471 18.4811C22.4583 18.878 23.2 19.9305 23.2 21.1104V23.694C23.2 24.9111 22.122 25.846 20.9172 25.6739L17.4184 25.1741C14.8856 24.8122 12.3144 24.8122 9.78162 25.1741L6.28284 25.6739C5.07797 25.846 4 24.9111 4 23.694V21.1104Z" fill="#F2F2F2" fill-opacity="0.5"/>
<path d="M5.76884 18.2457C4.55816 18.6781 3.75 19.8248 3.75 21.1104V23.694C3.75 25.0632 4.96272 26.115 6.3182 25.9214L9.81698 25.4215C12.3263 25.0631 14.8737 25.0631 17.383 25.4215L20.8818 25.9214C22.2373 26.115 23.45 25.0632 23.45 23.694V21.1104C23.45 19.8248 22.6418 18.6781 21.4312 18.2457C16.367 16.4371 10.833 16.4371 5.76884 18.2457Z" stroke="#F2F2F2" stroke-opacity="0.5" stroke-width="0.5"/>
</svg>
