<svg width="25" height="25" viewBox="0 0 25 25" fill="none" xmlns="http://www.w3.org/2000/svg">
<path d="M3.75 5.625C3.75 5.12772 3.94754 4.65081 4.29917 4.29917C4.65081 3.94754 5.12772 3.75 5.625 3.75H8.125C8.29076 3.75 8.44973 3.68415 8.56694 3.56694C8.68415 3.44973 8.75 3.29076 8.75 3.125C8.75 2.95924 8.68415 2.80027 8.56694 2.68306C8.44973 2.56585 8.29076 2.5 8.125 2.5H5.625C4.7962 2.5 4.00134 2.82924 3.41529 3.41529C2.82924 4.00134 2.5 4.7962 2.5 5.625V8.125C2.5 8.29076 2.56585 8.44973 2.68306 8.56694C2.80027 8.68415 2.95924 8.75 3.125 8.75C3.29076 8.75 3.44973 8.68415 3.56694 8.56694C3.68415 8.44973 3.75 8.29076 3.75 8.125V5.625ZM21.25 19.375C21.25 19.8723 21.0525 20.3492 20.7008 20.7008C20.3492 21.0525 19.8723 21.25 19.375 21.25H16.875C16.7092 21.25 16.5503 21.3158 16.4331 21.4331C16.3158 21.5503 16.25 21.7092 16.25 21.875C16.25 22.0408 16.3158 22.1997 16.4331 22.3169C16.5503 22.4342 16.7092 22.5 16.875 22.5H19.375C20.2038 22.5 20.9987 22.1708 21.5847 21.5847C22.1708 20.9987 22.5 20.2038 22.5 19.375V16.875C22.5 16.7092 22.4342 16.5503 22.3169 16.4331C22.1997 16.3158 22.0408 16.25 21.875 16.25C21.7092 16.25 21.5503 16.3158 21.4331 16.4331C21.3158 16.5503 21.25 16.7092 21.25 16.875V19.375ZM19.375 3.75C19.8723 3.75 20.3492 3.94754 20.7008 4.29917C21.0525 4.65081 21.25 5.12772 21.25 5.625V8.125C21.25 8.29076 21.3158 8.44973 21.4331 8.56694C21.5503 8.68415 21.7092 8.75 21.875 8.75C22.0408 8.75 22.1997 8.68415 22.3169 8.56694C22.4342 8.44973 22.5 8.29076 22.5 8.125V5.625C22.5 4.7962 22.1708 4.00134 21.5847 3.41529C20.9987 2.82924 20.2038 2.5 19.375 2.5H16.875C16.7092 2.5 16.5503 2.56585 16.4331 2.68306C16.3158 2.80027 16.25 2.95924 16.25 3.125C16.25 3.29076 16.3158 3.44973 16.4331 3.56694C16.5503 3.68415 16.7092 3.75 16.875 3.75H19.375ZM3.75 19.375C3.75 19.8723 3.94754 20.3492 4.29917 20.7008C4.65081 21.0525 5.12772 21.25 5.625 21.25H8.125C8.29076 21.25 8.44973 21.3158 8.56694 21.4331C8.68415 21.5503 8.75 21.7092 8.75 21.875C8.75 22.0408 8.68415 22.1997 8.56694 22.3169C8.44973 22.4342 8.29076 22.5 8.125 22.5H5.625C4.7962 22.5 4.00134 22.1708 3.41529 21.5847C2.82924 20.9987 2.5 20.2038 2.5 19.375V16.875C2.5 16.7092 2.56585 16.5503 2.68306 16.4331C2.80027 16.3158 2.95924 16.25 3.125 16.25C3.29076 16.25 3.44973 16.3158 3.56694 16.4331C3.68415 16.5503 3.75 16.7092 3.75 16.875V19.375Z" fill="white" stroke="white"/>
<path fill-rule="evenodd" clip-rule="evenodd" d="M8.06818 7.07206C8.03067 7.1116 8 8.0353 8 9.12473V11.1053H8.25301H8.50602L8.53413 9.34976L8.56224 7.59419L10.2234 7.56448L11.8846 7.53477V7.26739V7H10.0105C8.97963 7 8.1056 7.03241 8.06818 7.07206ZM9.22539 8.29642C9.19819 10.5104 9.23806 16.223 9.2812 16.2967C9.31606 16.3563 10.3214 16.3991 11.6862 16.3991H14.0313V15.3727V14.3464H12.6002H11.169V11.2674V8.18839H10.1979C9.61947 8.18839 9.2262 8.23203 9.22539 8.29642ZM12.0891 9.21278V10.2411H13.5713H15.0536V11.7535V13.266H16.0266H16.9997L16.9722 10.7542L16.9448 8.2424L14.5169 8.21345L12.0891 8.1845V9.21278ZM12.0891 12.2397V13.266H13.0602H14.0313V12.2397V11.2134H13.0602H12.0891V12.2397ZM13.5202 12.2397V12.7259H13.0602H12.6002V12.2397V11.7535H13.0602H13.5202V12.2397ZM15.0536 16.6732V19L15.9992 18.969L16.9448 18.9379L16.9724 16.6421L17 14.3464H16.0268H15.0536V16.6732Z" fill="white"/>
</svg>
