<svg width="28" height="28" viewBox="0 0 28 28" fill="none" xmlns="http://www.w3.org/2000/svg">
<path fill-rule="evenodd" clip-rule="evenodd" d="M16.2791 2.00708C16.2099 2.00238 16.1404 2 16.0706 2H9.30233C6.37393 2 4 4.37393 4 7.30233V20.6977C4 23.6261 6.37393 26 9.30233 26H18.2326C21.1609 26 23.5349 23.6261 23.5349 20.6977V10.3721H19.3488C17.6535 10.3721 16.2791 8.99771 16.2791 7.30233V2.00708ZM8.46512 14C8.46512 13.5376 8.83995 13.1628 9.30233 13.1628H18.2326C18.6949 13.1628 19.0698 13.5376 19.0698 14C19.0698 14.4624 18.6949 14.8372 18.2326 14.8372H9.30233C8.83995 14.8372 8.46512 14.4624 8.46512 14ZM9.30233 18.7442C8.83995 18.7442 8.46512 19.119 8.46512 19.5814C8.46512 20.0438 8.83995 20.4186 9.30233 20.4186H13.7674C14.2298 20.4186 14.6047 20.0438 14.6047 19.5814C14.6047 19.119 14.2298 18.7442 13.7674 18.7442H9.30233Z" fill="#F2F2F2" fill-opacity="0.5"/>
<path d="M23.0566 8.69767C22.9861 8.58671 22.9083 8.47988 22.8234 8.37796L18.4289 3.10455C18.2861 2.93322 18.1265 2.77958 17.9535 2.64523V7.30233C17.9535 8.07296 18.5782 8.69767 19.3488 8.69767H23.0566Z" fill="#F2F2F2" fill-opacity="0.5"/>
</svg>
