<svg width="25" height="25" viewBox="0 0 25 25" fill="none" xmlns="http://www.w3.org/2000/svg">
<path d="M22.754 15.1042C22.3766 15.1042 22.0703 14.7979 22.0703 14.4207C22.0703 11.7819 19.9238 9.63545 17.2851 9.63545H10.6771V12.5977C10.6771 13.1992 9.95339 13.5037 9.52136 13.0917L4.50834 8.30654C4.37344 8.17803 4.29688 7.99937 4.29688 7.81253C4.29688 7.62567 4.37344 7.44703 4.50834 7.31852L9.52136 2.53336C9.95522 2.11956 10.6771 2.42763 10.6771 3.02737V5.98961H16.3737C20.2684 5.98961 23.4375 9.15875 23.4375 13.0534V14.4207C23.4375 14.7979 23.1312 15.1042 22.754 15.1042Z" fill="white"/>
<path d="M3.68355 10C4.06091 10 4.36723 10.3063 4.36723 10.6836C4.36723 13.3223 6.51368 15.4688 9.15236 15.4688H15.7604V12.5065C15.7604 11.905 16.4841 11.6005 16.9161 12.0125L21.9292 16.7977C22.0641 16.9262 22.1406 17.1048 22.1406 17.2917C22.1406 17.4785 22.0641 17.6572 21.9292 17.7857L16.9161 22.5709C16.4823 22.9847 15.7604 22.6766 15.7604 22.0768V19.1146H10.0638C6.16907 19.1146 2.99999 15.9455 2.99999 12.0508V10.6836C2.99999 10.3063 3.30631 10 3.68355 10Z" fill="white"/>
</svg>
