<svg width="25" height="25" viewBox="0 0 25 25" fill="none" xmlns="http://www.w3.org/2000/svg">
<path d="M22.1558 13.7817C21.7226 13.7817 18.1177 13.7817 18.3105 13.7817C16.8968 13.7817 15.7471 14.9313 15.7471 16.3453C15.7471 17.7589 16.8967 18.9087 18.3105 18.9087C18.7436 18.9087 22.3485 18.9087 22.1558 18.9087C22.8623 18.9087 23.4375 18.3335 23.4375 17.627C23.4375 17.4846 23.4375 14.9247 23.4375 15.0634C23.4375 14.3568 22.8623 13.7817 22.1558 13.7817ZM18.3105 16.986C17.9567 16.986 17.6697 16.6992 17.6697 16.3453C17.6697 15.9913 17.9565 15.7043 18.3105 15.7043C18.6644 15.7043 18.9514 15.9912 18.9514 16.3453C18.9514 16.6991 18.6644 16.986 18.3105 16.986Z" fill="white"/>
<path d="M11.2183 7.9712C12.985 7.9712 14.4226 6.53368 14.4226 4.76684C14.4226 3.00014 12.9851 1.5625 11.2183 1.5625C9.45155 1.5625 8.01392 3.00001 8.01392 4.76684C8.01392 6.53355 9.45143 7.9712 11.2183 7.9712ZM11.2183 4.12597C11.5721 4.12597 11.8591 4.41283 11.8591 4.76684C11.8591 5.12074 11.5722 5.40771 11.2183 5.40771C10.8644 5.40771 10.5774 5.12078 10.5774 4.76684C10.5774 4.41296 10.8642 4.12597 11.2183 4.12597Z" fill="white"/>
<path d="M20.2333 7.32771C20.2333 6.97523 19.9475 6.68945 19.595 6.68945H15.2545C15.03 7.15839 14.7305 7.5976 14.348 7.9712H20.2333C20.2333 7.84212 20.2333 7.19864 20.2333 7.32771Z" fill="white"/>
<path d="M14.4654 16.3454C14.4654 14.225 16.1901 12.5002 18.3105 12.5002C18.4833 12.5002 21.695 12.5002 21.5149 12.5002V9.89395C21.5149 9.53503 21.2329 9.25308 20.8741 9.25308C20.6559 9.25308 2.50914 9.25308 2.20337 9.25308C1.98414 9.25308 1.77146 9.20955 1.5625 9.13504V21.515C1.5625 22.5788 2.42122 23.4376 3.48511 23.4376H20.8741C21.2329 23.4376 21.5149 23.1557 21.5149 22.7968V20.1905C21.3421 20.1905 18.1305 20.1905 18.3105 20.1905C16.1903 20.1905 14.4654 18.4658 14.4654 16.3454Z" fill="white"/>
<path d="M2.20337 6.68945C1.84443 6.68945 1.5625 6.97139 1.5625 7.33031C1.5625 7.68917 1.84443 7.9712 2.20337 7.9712H8.08864C7.70621 7.5976 7.40663 7.15839 7.1822 6.68945H2.20337Z" fill="white"/>
</svg>
